<svg width="152" height="48" viewBox="0 0 152 48" fill="none" xmlns="http://www.w3.org/2000/svg">
<mask id="path-1-inside-1_88_111" fill="white">
<path d="M0 24C0 10.7452 10.7452 0 24 0H127.75C141.005 0 151.75 10.7452 151.75 24V24C151.75 37.2548 141.005 48 127.75 48H24C10.7452 48 0 37.2548 0 24V24Z"/>
</mask>
<path d="M0 24C0 10.7452 10.7452 0 24 0H127.75C141.005 0 151.75 10.7452 151.75 24V24C151.75 37.2548 141.005 48 127.75 48H24C10.7452 48 0 37.2548 0 24V24Z" fill="white"/>
<path d="M0 24M151.75 24M151.75 24M0 24M24 0V1.8H127.75V0V-1.8H24V0ZM151.75 24M127.75 48V46.2H24V48V49.8H127.75V48ZM0 24M24 48V46.2C11.7393 46.2 1.8 36.2607 1.8 24H0H-1.8C-1.8 38.2489 9.75105 49.8 24 49.8V48ZM151.75 24H149.95C149.95 36.2607 140.011 46.2 127.75 46.2V48V49.8C141.999 49.8 153.55 38.2489 153.55 24H151.75ZM127.75 0V1.8C140.011 1.8 149.95 11.7393 149.95 24H151.75H153.55C153.55 9.75105 141.999 -1.8 127.75 -1.8V0ZM24 0V-1.8C9.75105 -1.8 -1.8 9.75105 -1.8 24H0H1.8C1.8 11.7393 11.7393 1.8 24 1.8V0Z" fill="#354159" mask="url(#path-1-inside-1_88_111)"/>
<path d="M29.0314 17.8784C30.4693 17.8775 31.8612 18.3856 32.9603 19.3128L36.039 16.3809C34.8571 15.2912 33.4376 14.4919 31.8929 14.0465C30.3483 13.6011 28.7211 13.5219 27.1405 13.8151C25.5599 14.1083 24.0694 14.7659 22.7873 15.7356C21.5052 16.7054 20.4668 17.9606 19.7544 19.4017L23.2252 22.077C23.63 20.8564 24.4086 19.7941 25.4506 19.0405C26.4927 18.287 27.7454 17.8804 29.0314 17.8784V17.8784Z" fill="#D94F3D"/>
<path d="M22.9118 23.998C22.9126 23.345 23.0185 22.6963 23.2253 22.0769L19.7545 19.4016C19.0445 20.8298 18.675 22.4031 18.675 23.998C18.675 25.5929 19.0445 27.1662 19.7545 28.5944L23.2253 25.9191C23.0185 25.2997 22.9126 24.651 22.9118 23.998V23.998Z" fill="#F2C042"/>
<path d="M38.9642 22.115H29.0785V26.3517H34.6804C34.3471 27.5497 33.5836 28.5825 32.5361 29.2525L35.9801 31.9075C38.1809 29.9322 39.474 26.7203 38.9642 22.115Z" fill="#5085ED"/>
<path d="M32.5347 29.2526C31.4704 29.8617 30.257 30.1614 29.0314 30.1178C27.7454 30.1158 26.4927 29.7092 25.4506 28.9557C24.4086 28.2021 23.63 27.1398 23.2252 25.9192L19.7544 28.5944C20.6117 30.3226 21.9342 31.7773 23.5731 32.7949C25.212 33.8125 27.1023 34.3526 29.0314 34.3545C31.5699 34.4235 34.0442 33.5516 35.9787 31.9066L32.5347 29.2526Z" fill="#57A75C"/>
<path d="M57.0665 22.5696C56.9836 22.3011 56.8693 22.0608 56.7235 21.8487C56.5809 21.6333 56.4086 21.4493 56.2064 21.2969C56.0075 21.1444 55.7789 21.0301 55.5203 20.9538C55.2618 20.8743 54.9801 20.8345 54.6752 20.8345C54.1283 20.8345 53.6411 20.9721 53.2135 21.2472C52.786 21.5223 52.4495 21.9266 52.2043 22.4602C51.9623 22.9905 51.8414 23.6368 51.8414 24.3991C51.8414 25.1681 51.9623 25.8194 52.2043 26.353C52.4462 26.8866 52.7826 27.2926 53.2135 27.571C53.6444 27.8461 54.1449 27.9837 54.7149 27.9837C55.232 27.9837 55.6794 27.8842 56.0573 27.6854C56.4384 27.4865 56.7317 27.2048 56.9372 26.8402C57.1427 26.4723 57.2455 26.0414 57.2455 25.5476L57.6631 25.6122H54.8989V24.1705H59.0303V25.3935C59.0303 26.2652 58.8447 27.0192 58.4735 27.6555C58.1022 28.2919 57.5918 28.7824 56.9422 29.1271C56.2926 29.4685 55.5468 29.6392 54.705 29.6392C53.767 29.6392 52.9434 29.4287 52.2341 29.0078C51.5281 28.5836 50.9763 27.982 50.5786 27.2031C50.1842 26.4209 49.9869 25.4929 49.9869 24.419C49.9869 23.5971 50.103 22.8629 50.335 22.2166C50.5703 21.5703 50.8984 21.0218 51.3193 20.571C51.7403 20.117 52.2341 19.7723 52.8009 19.5369C53.3676 19.2983 53.9841 19.179 54.6503 19.179C55.2137 19.179 55.7391 19.2618 56.2263 19.4276C56.7135 19.59 57.146 19.822 57.5239 20.1236C57.905 20.4252 58.2182 20.7831 58.4635 21.1974C58.7088 21.6117 58.8695 22.0691 58.9458 22.5696H57.0665ZM64.1653 29.6491C63.4195 29.6491 62.7732 29.4851 62.2263 29.157C61.6795 28.8288 61.2552 28.3698 60.9536 27.7798C60.6553 27.1899 60.5062 26.5005 60.5062 25.7116C60.5062 24.9228 60.6553 24.2318 60.9536 23.6385C61.2552 23.0452 61.6795 22.5845 62.2263 22.2564C62.7732 21.9283 63.4195 21.7642 64.1653 21.7642C64.911 21.7642 65.5573 21.9283 66.1042 22.2564C66.651 22.5845 67.0736 23.0452 67.3719 23.6385C67.6735 24.2318 67.8243 24.9228 67.8243 25.7116C67.8243 26.5005 67.6735 27.1899 67.3719 27.7798C67.0736 28.3698 66.651 28.8288 66.1042 29.157C65.5573 29.4851 64.911 29.6491 64.1653 29.6491ZM64.1752 28.2074C64.5796 28.2074 64.9176 28.0964 65.1894 27.8743C65.4612 27.6489 65.6634 27.3473 65.7959 26.9695C65.9318 26.5916 65.9998 26.1707 65.9998 25.7067C65.9998 25.2393 65.9318 24.8168 65.7959 24.4389C65.6634 24.0578 65.4612 23.7545 65.1894 23.5291C64.9176 23.3037 64.5796 23.1911 64.1752 23.1911C63.7609 23.1911 63.4162 23.3037 63.1411 23.5291C62.8693 23.7545 62.6655 24.0578 62.5296 24.4389C62.397 24.8168 62.3307 25.2393 62.3307 25.7067C62.3307 26.1707 62.397 26.5916 62.5296 26.9695C62.6655 27.3473 62.8693 27.6489 63.1411 27.8743C63.4162 28.0964 63.7609 28.2074 64.1752 28.2074ZM72.7828 29.6491C72.0371 29.6491 71.3908 29.4851 70.8439 29.157C70.297 28.8288 69.8728 28.3698 69.5712 27.7798C69.2729 27.1899 69.1237 26.5005 69.1237 25.7116C69.1237 24.9228 69.2729 24.2318 69.5712 23.6385C69.8728 23.0452 70.297 22.5845 70.8439 22.2564C71.3908 21.9283 72.0371 21.7642 72.7828 21.7642C73.5286 21.7642 74.1749 21.9283 74.7218 22.2564C75.2686 22.5845 75.6912 23.0452 75.9895 23.6385C76.2911 24.2318 76.4419 24.9228 76.4419 25.7116C76.4419 26.5005 76.2911 27.1899 75.9895 27.7798C75.6912 28.3698 75.2686 28.8288 74.7218 29.157C74.1749 29.4851 73.5286 29.6491 72.7828 29.6491ZM72.7928 28.2074C73.1971 28.2074 73.5352 28.0964 73.807 27.8743C74.0788 27.6489 74.2809 27.3473 74.4135 26.9695C74.5494 26.5916 74.6173 26.1707 74.6173 25.7067C74.6173 25.2393 74.5494 24.8168 74.4135 24.4389C74.2809 24.0578 74.0788 23.7545 73.807 23.5291C73.5352 23.3037 73.1971 23.1911 72.7928 23.1911C72.3785 23.1911 72.0338 23.3037 71.7587 23.5291C71.4869 23.7545 71.2831 24.0578 71.1472 24.4389C71.0146 24.8168 70.9483 25.2393 70.9483 25.7067C70.9483 26.1707 71.0146 26.5916 71.1472 26.9695C71.2831 27.3473 71.4869 27.6489 71.7587 27.8743C72.0338 28.0964 72.3785 28.2074 72.7928 28.2074ZM81.3905 32.5227C80.7442 32.5227 80.189 32.4349 79.725 32.2592C79.261 32.0869 78.8881 31.8549 78.6064 31.5632C78.3247 31.2715 78.1291 30.9484 78.0197 30.5938L79.6405 30.201C79.7134 30.3501 79.8194 30.4976 79.9586 30.6435C80.0979 30.7926 80.2851 30.9152 80.5204 31.0114C80.7591 31.1108 81.059 31.1605 81.4203 31.1605C81.9307 31.1605 82.3533 31.0362 82.688 30.7876C83.0228 30.5424 83.1902 30.138 83.1902 29.5746V28.1278H83.1007C83.0079 28.3134 82.872 28.504 82.693 28.6996C82.5174 28.8951 82.2837 29.0592 81.992 29.1918C81.7037 29.3243 81.3407 29.3906 80.9032 29.3906C80.3166 29.3906 79.7846 29.2531 79.3074 28.978C78.8334 28.6996 78.4556 28.2853 78.1738 27.7351C77.8954 27.1816 77.7562 26.4889 77.7562 25.657C77.7562 24.8184 77.8954 24.1108 78.1738 23.5341C78.4556 22.9541 78.8351 22.5149 79.3123 22.2166C79.7896 21.915 80.3216 21.7642 80.9082 21.7642C81.3557 21.7642 81.7236 21.8404 82.0119 21.9929C82.3036 22.142 82.5356 22.3227 82.7079 22.5348C82.8803 22.7436 83.0112 22.9408 83.1007 23.1264H83.2001V21.8636H84.975V29.6243C84.975 30.2772 84.8192 30.8175 84.5077 31.245C84.1961 31.6726 83.7702 31.9924 83.23 32.2045C82.6897 32.4167 82.0765 32.5227 81.3905 32.5227ZM81.4054 27.9787C81.7865 27.9787 82.1113 27.8859 82.3798 27.7003C82.6483 27.5147 82.8521 27.2479 82.9913 26.8999C83.1305 26.5518 83.2001 26.1342 83.2001 25.647C83.2001 25.1664 83.1305 24.7455 82.9913 24.3842C82.8554 24.023 82.6532 23.7429 82.3848 23.544C82.1196 23.3419 81.7932 23.2408 81.4054 23.2408C81.0043 23.2408 80.6696 23.3452 80.4011 23.554C80.1327 23.7628 79.9305 24.0495 79.7946 24.4141C79.6587 24.7753 79.5907 25.1863 79.5907 25.647C79.5907 26.1143 79.6587 26.5237 79.7946 26.875C79.9338 27.223 80.1376 27.4948 80.4061 27.6903C80.6779 27.8826 81.011 27.9787 81.4054 27.9787ZM88.7192 19.3182V29.5H86.9194V19.3182H88.7192ZM94.0505 29.6491C93.2849 29.6491 92.6237 29.4901 92.0669 29.1719C91.5133 28.8504 91.0874 28.3963 90.7892 27.8097C90.4909 27.2197 90.3417 26.5253 90.3417 25.7266C90.3417 24.9411 90.4909 24.2517 90.7892 23.6584C91.0908 23.0618 91.5117 22.5978 92.0519 22.2663C92.5922 21.9316 93.2269 21.7642 93.9561 21.7642C94.4267 21.7642 94.8708 21.8404 95.2884 21.9929C95.7094 22.142 96.0806 22.3741 96.4021 22.6889C96.7269 23.0038 96.9821 23.4048 97.1677 23.892C97.3533 24.3759 97.4461 24.9527 97.4461 25.6222V26.174H91.1869V24.9609H95.721C95.7177 24.6162 95.6431 24.3097 95.4972 24.0412C95.3514 23.7694 95.1476 23.5556 94.8857 23.3999C94.6272 23.2441 94.3256 23.1662 93.9809 23.1662C93.613 23.1662 93.2899 23.2557 93.0115 23.4347C92.733 23.6103 92.516 23.8423 92.3602 24.1307C92.2077 24.4157 92.1298 24.7289 92.1265 25.0703V26.1293C92.1265 26.5734 92.2077 26.9545 92.3701 27.2727C92.5325 27.5876 92.7596 27.8295 93.0512 27.9986C93.3429 28.1643 93.6843 28.2472 94.0754 28.2472C94.3372 28.2472 94.5742 28.2107 94.7863 28.1378C94.9984 28.0616 95.1824 27.9505 95.3382 27.8047C95.4939 27.6589 95.6116 27.4782 95.6911 27.2628L97.3715 27.4517C97.2655 27.8958 97.0633 28.2836 96.765 28.6151C96.47 28.9432 96.0922 29.1984 95.6315 29.3807C95.1708 29.5597 94.6438 29.6491 94.0505 29.6491ZM102.721 29.5V19.3182H106.539C107.321 19.3182 107.977 19.464 108.508 19.7557C109.041 20.0473 109.444 20.4484 109.716 20.9588C109.991 21.4659 110.129 22.0426 110.129 22.6889C110.129 23.3419 109.991 23.9219 109.716 24.429C109.441 24.9361 109.035 25.3355 108.498 25.6271C107.961 25.9155 107.3 26.0597 106.514 26.0597H103.984V24.5433H106.266C106.723 24.5433 107.098 24.4638 107.389 24.3047C107.681 24.1456 107.896 23.9268 108.035 23.6484C108.178 23.37 108.249 23.0502 108.249 22.6889C108.249 22.3277 108.178 22.0095 108.035 21.7344C107.896 21.4593 107.679 21.2455 107.384 21.093C107.093 20.9373 106.716 20.8594 106.256 20.8594H104.565V29.5H102.721ZM113.551 19.3182V29.5H111.751V19.3182H113.551ZM117.699 29.6541C117.215 29.6541 116.779 29.5679 116.391 29.3956C116.007 29.2199 115.702 28.9614 115.477 28.62C115.255 28.2786 115.144 27.8577 115.144 27.3572C115.144 26.9264 115.223 26.5701 115.382 26.2884C115.541 26.0066 115.758 25.7812 116.033 25.6122C116.309 25.4432 116.618 25.3156 116.963 25.2294C117.311 25.1399 117.671 25.0753 118.042 25.0355C118.489 24.9891 118.852 24.9477 119.131 24.9112C119.409 24.8714 119.611 24.8118 119.737 24.7322C119.867 24.6494 119.931 24.5218 119.931 24.3494V24.3196C119.931 23.9451 119.82 23.6551 119.598 23.4496C119.376 23.2441 119.056 23.1413 118.639 23.1413C118.198 23.1413 117.848 23.2375 117.59 23.4297C117.334 23.6219 117.162 23.849 117.072 24.1108L115.392 23.8722C115.525 23.4081 115.743 23.0204 116.048 22.7088C116.353 22.3939 116.726 22.1586 117.167 22.0028C117.608 21.8438 118.095 21.7642 118.629 21.7642C118.997 21.7642 119.363 21.8073 119.727 21.8935C120.092 21.9796 120.425 22.1222 120.727 22.321C121.028 22.5166 121.27 22.7834 121.452 23.1214C121.638 23.4595 121.731 23.8821 121.731 24.3892V29.5H120.001V28.451H119.941C119.832 28.6631 119.678 28.862 119.479 29.0476C119.283 29.2299 119.036 29.3774 118.738 29.4901C118.443 29.5994 118.097 29.6541 117.699 29.6541ZM118.166 28.3317C118.528 28.3317 118.841 28.2604 119.106 28.1179C119.371 27.9721 119.575 27.7798 119.717 27.5412C119.863 27.3026 119.936 27.0424 119.936 26.7607V25.8608C119.88 25.9072 119.784 25.9503 119.648 25.9901C119.515 26.0298 119.366 26.0646 119.2 26.0945C119.035 26.1243 118.871 26.1508 118.708 26.174C118.546 26.1972 118.405 26.2171 118.286 26.2337C118.017 26.2701 117.777 26.3298 117.565 26.4126C117.353 26.4955 117.185 26.6115 117.063 26.7607C116.94 26.9065 116.879 27.0954 116.879 27.3274C116.879 27.6589 117 27.9091 117.242 28.0781C117.483 28.2472 117.792 28.3317 118.166 28.3317ZM124.486 32.3636C124.24 32.3636 124.013 32.3438 123.805 32.304C123.599 32.2675 123.435 32.2244 123.312 32.1747L123.73 30.7727C123.992 30.849 124.226 30.8854 124.431 30.8821C124.637 30.8788 124.817 30.8142 124.973 30.6882C125.132 30.5656 125.266 30.3601 125.376 30.0717L125.53 29.6591L122.761 21.8636H124.67L126.43 27.6307H126.509L128.274 21.8636H130.188L127.131 30.4247C126.988 30.8291 126.799 31.1754 126.564 31.4638C126.329 31.7554 126.04 31.9775 125.699 32.13C125.361 32.2857 124.956 32.3636 124.486 32.3636Z" fill="#354159"/>
</svg>
